<?xml version="1.0" encoding="UTF-8" standalone="no"?>
<!-- Created with Inkscape (http://www.inkscape.org/) -->

<svg
   xmlns:dc="http://purl.org/dc/elements/1.1/"
   xmlns:cc="http://creativecommons.org/ns#"
   xmlns:rdf="http://www.w3.org/1999/02/22-rdf-syntax-ns#"
   xmlns:svg="http://www.w3.org/2000/svg"
   xmlns="http://www.w3.org/2000/svg"
   xmlns:sodipodi="http://sodipodi.sourceforge.net/DTD/sodipodi-0.dtd"
   xmlns:inkscape="http://www.inkscape.org/namespaces/inkscape"
   width="320"
   height="290"
   id="svg2"
   version="1.1"
   sodipodi:docname="level1.svg">
  <defs
     id="defs4" />
  <sodipodi:namedview
     id="base"
     pagecolor="#ffffff"
     bordercolor="#666666"
     borderopacity="1.0" />
  <metadata
     id="metadata7">
    <rdf:RDF>
      <cc:Work
         rdf:about="">
        <dc:format>image/svg+xml</dc:format>
        <dc:type
           rdf:resource="http://purl.org/dc/dcmitype/StillImage" />
        <dc:title />
      </cc:Work>
    </rdf:RDF>
  </metadata>
  <g>
    <rect
       style="fill:#8d60c6;fill-opacity:1;fill-rule:nonzero;stroke:#0080d8;stroke-width:3;stroke-linejoin:round;stroke-miterlimit:4;stroke-opacity:1;stroke-dasharray:none"
       id="rect2989"
       width="140"
       height="20"
       x="0"
       y="20"/>
        <rect
       style="fill:#8d60c6;fill-opacity:1;fill-rule:nonzero;stroke:#0080d8;stroke-width:3;stroke-linejoin:round;stroke-miterlimit:4;stroke-opacity:1;stroke-dasharray:none"
       id="rect2989"
       width="140"
       height="20"
       x="180"
       y="20"/>
      <rect
       style="fill:#8d60c6;fill-opacity:1;fill-rule:nonzero;stroke:#0080d8;stroke-width:3;stroke-linejoin:round;stroke-miterlimit:4;stroke-opacity:1;stroke-dasharray:none"
       id="rect2989"
       width="140"
       height="20"
       x="0"
       y="235"/>
        <rect
       style="fill:#8d60c6;fill-opacity:1;fill-rule:nonzero;stroke:#0080d8;stroke-width:3;stroke-linejoin:round;stroke-miterlimit:4;stroke-opacity:1;stroke-dasharray:none"
       id="rect2989"
       width="140"
       height="20"
       x="180"
       y="235"/>
        <rect
       style="fill:#8d60c6;fill-opacity:1;fill-rule:nonzero;stroke:#0080d8;stroke-width:3;stroke-linejoin:round;stroke-miterlimit:4;stroke-opacity:1;stroke-dasharray:none"
       id="rect2989"
       width="220"
       height="20"
       x="50"
       y="135"/>

	<circle cx="110" cy="180" r="20" stroke="black" stroke-width="2" fill="orange" ><desc>type=m;speed=30;reverse=true;path=path1</desc></circle>
  <path id="path1" d="M110,180 L25,180 L25,80 L295,80 L295,180 L110,180" style="fill:none;stroke:red;stroke-width:2"/>

  <circle cx="110" cy="80" r="20" stroke="black" stroke-width="2" fill="orange" ><desc>type=m;speed=30;reverse=true;path=path2</desc></circle>
  <path id="path2" d="M110,80 L295,80 L295,180 L25,180 L25,80 L110,80" style="fill:none;stroke:red;stroke-width:2"/>

  <circle cx="220" cy="180" r="20" stroke="black" stroke-width="2" fill="orange" ><desc>type=m;speed=30;reverse=true;path=path3</desc></circle>
  <path id="path3" d="M220,180 L25,180 L25,80 L295,80 L295,180 L220,180" style="fill:none;stroke:red;stroke-width:2"/>

  <circle cx="220" cy="80" r="20" stroke="black" stroke-width="2" fill="orange" ><desc>type=m;speed=30;reverse=true;path=path4</desc></circle>
  <path id="path4" d="M220,80 L295,80 L295,180 L25,180 L25,80 L220,80" style="fill:none;stroke:red;stroke-width:2"/>

  <polyline
       points="0,0 320,0 320,290 0,290 0,0"
       style="fill:none;stroke:red;stroke-width:2"/>
  </g>
</svg>
