<?xml version="1.0" encoding="UTF-8" standalone="no"?>
<!-- Created with Inkscape (http://www.inkscape.org/) -->

<svg
   xmlns:dc="http://purl.org/dc/elements/1.1/"
   xmlns:cc="http://creativecommons.org/ns#"
   xmlns:rdf="http://www.w3.org/1999/02/22-rdf-syntax-ns#"
   xmlns:svg="http://www.w3.org/2000/svg"
   xmlns="http://www.w3.org/2000/svg"
   xmlns:sodipodi="http://sodipodi.sourceforge.net/DTD/sodipodi-0.dtd"
   xmlns:inkscape="http://www.inkscape.org/namespaces/inkscape"
   width="744.09448819"
   height="1052.3622047"
   id="svg2"
   version="1.1"
   inkscape:version="0.48.2 r9819"
   sodipodi:docname="lh.svg">
  <defs
     id="defs4" />
  <sodipodi:namedview
     id="base"
     pagecolor="#ffffff"
     bordercolor="#666666"
     borderopacity="1.0"
     inkscape:pageopacity="0.0"
     inkscape:pageshadow="2"
     inkscape:zoom="0.70710678"
     inkscape:cx="59.841835"
     inkscape:cy="393.63864"
     inkscape:document-units="px"
     inkscape:current-layer="layer1"
     showgrid="false"
     inkscape:snap-to-guides="false"
     inkscape:snap-global="false"
     inkscape:window-width="1406"
     inkscape:window-height="714"
     inkscape:window-x="65"
     inkscape:window-y="23"
     inkscape:window-maximized="0" />
  <metadata
     id="metadata7">
    <rdf:RDF>
      <cc:Work
         rdf:about="">
        <dc:format>image/svg+xml</dc:format>
        <dc:type
           rdf:resource="http://purl.org/dc/dcmitype/StillImage" />
        <dc:title></dc:title>
      </cc:Work>
    </rdf:RDF>
  </metadata>
  <g
     inkscape:label="Layer 1"
     inkscape:groupmode="layer"
     id="layer1">
    <rect
       style="fill:#0080d8;stroke:#000000;stroke-width:7.68278455999999998;stroke-miterlimit:4;stroke-dasharray:none;fill-opacity:1"
       id="rect3870"
       width="600.19995"
       height="962.96161"
       x="95.377724"
       y="77.590347" />
    <g
       id="g3872"
       transform="translate(202.78283,804.86826)">
      <path
         sodipodi:type="arc"
         style="fill:#008080;stroke:#000000;stroke-width:5;stroke-miterlimit:4;stroke-dasharray:none"
         id="path3874"
         sodipodi:cx="160.89108"
         sodipodi:cy="132.06516"
         sodipodi:rx="67.821785"
         sodipodi:ry="67.821785"
         d="m 228.71287,132.06516 c 0,37.45693 -30.36485,67.82178 -67.82179,67.82178 -37.45693,0 -67.821782,-30.36485 -67.821782,-67.82178 0,-37.456943 30.364852,-67.82179 67.821782,-67.82179 37.45694,0 67.82179,30.364847 67.82179,67.82179 z" />
      <path
         sodipodi:type="arc"
         style="fill:#000000;stroke:#000000;stroke-width:5;stroke-miterlimit:4;stroke-dasharray:none"
         id="path3876"
         sodipodi:cx="306.6463"
         sodipodi:cy="78.16507"
         sodipodi:rx="6.3009515"
         sodipodi:ry="9.4514275"
         d="m 312.94725,78.16507 c 0,5.219879 -2.82103,9.451427 -6.30095,9.451427 -3.47992,0 -6.30095,-4.231548 -6.30095,-9.451427 0,-5.21988 2.82103,-9.451428 6.30095,-9.451428 3.47992,0 6.30095,4.231548 6.30095,9.451428 z"
         transform="matrix(1,0,0,-1,-169.42559,173.83278)" />
      <path
         sodipodi:type="arc"
         style="fill:#000000;stroke:#000000;stroke-width:5;stroke-miterlimit:4;stroke-dasharray:none"
         id="path3878"
         sodipodi:cx="306.6463"
         sodipodi:cy="78.16507"
         sodipodi:rx="6.3009515"
         sodipodi:ry="9.4514275"
         d="m 312.94725,78.16507 c 0,5.219879 -2.82103,9.451427 -6.30095,9.451427 -3.47992,0 -6.30095,-4.231548 -6.30095,-9.451427 0,-5.21988 2.82103,-9.451428 6.30095,-9.451428 3.47992,0 6.30095,4.231548 6.30095,9.451428 z"
         transform="matrix(1,0,0,-1,-121.81839,174.88293)" />
      <path
         sodipodi:type="spiral"
         style="fill:none;stroke:#000000;stroke-width:1px;stroke-linecap:butt;stroke-linejoin:miter;stroke-opacity:1"
         id="path3880"
         sodipodi:cx="288.44357"
         sodipodi:cy="106.51935"
         sodipodi:expansion="1"
         sodipodi:revolution="3"
         sodipodi:radius="23.534386"
         sodipodi:argument="-17.675838"
         sodipodi:t0="0"
         d="m 288.44357,106.51935 c 0.45633,1.08817 -1.24169,1.15198 -1.8086,0.75845 -1.53631,-1.06647 -0.92251,-3.342 0.29171,-4.37567 2.17195,-1.84898 5.43323,-0.83552 6.94271,1.34188 2.21523,3.19541 0.75794,7.55716 -2.39203,9.50977 -4.19841,2.60251 -9.69327,0.68507 -12.07682,-3.4422 -2.99946,-5.19374 -0.61481,-11.835312 4.49235,-14.643874 6.18546,-3.401544 13.98074,-0.546062 17.21093,5.542514 3.80667,7.17518 0.47828,16.12826 -6.59267,19.77798 -8.1637,4.21375 -18.2772,0.41115 -22.34504,-7.64283 -4.62213,-9.15144 -0.34445,-20.427124 8.69299,-24.912091 10.13865,-5.031456 22.57777,-0.278088 27.47915,9.743154 5.44146,11.125477 0.21196,24.728947 -10.79331,30.046197"
         transform="translate(-129.51956,31.504758)" />
      <path
         sodipodi:type="arc"
         style="fill:#000000;stroke:#000000;stroke-width:5;stroke-miterlimit:4;stroke-dasharray:none"
         id="path3882"
         sodipodi:cx="283.19278"
         sodipodi:cy="85.166122"
         sodipodi:rx="1.7502643"
         sodipodi:ry="2.4503701"
         d="m 284.94304,85.166122 c 0,1.353302 -0.78362,2.450371 -1.75026,2.450371 -0.96664,0 -1.75026,-1.097069 -1.75026,-2.450371 0,-1.353302 0.78362,-2.45037 1.75026,-2.45037 0.96664,0 1.75026,1.097068 1.75026,2.45037 z"
         transform="translate(-126.11935,-17.402326)" />
      <path
         transform="translate(-118.66793,-17.65206)"
         sodipodi:type="arc"
         style="fill:#000000;stroke:#000000;stroke-width:5;stroke-miterlimit:4;stroke-dasharray:none"
         id="path3884"
         sodipodi:cx="283.19278"
         sodipodi:cy="85.166122"
         sodipodi:rx="1.7502643"
         sodipodi:ry="2.4503701"
         d="m 284.94304,85.166122 c 0,1.353302 -0.78362,2.450371 -1.75026,2.450371 -0.96664,0 -1.75026,-1.097069 -1.75026,-2.450371 0,-1.353302 0.78362,-2.45037 1.75026,-2.45037 0.96664,0 1.75026,1.097068 1.75026,2.45037 z" />
      <path
         sodipodi:type="arc"
         style="fill:#ffffff;stroke:#000000;stroke-width:5;stroke-miterlimit:4;stroke-dasharray:none"
         id="path3886"
         sodipodi:cx="284.94302"
         sodipodi:cy="76.064751"
         sodipodi:rx="4.2006345"
         sodipodi:ry="4.5506873"
         d="m 289.14366,76.064751 c 0,2.513275 -1.88069,4.550687 -4.20064,4.550687 -2.31994,0 -4.20063,-2.037412 -4.20063,-4.550687 0,-2.513276 1.88069,-4.550688 4.20063,-4.550688 2.31995,0 4.20064,2.037412 4.20064,4.550688 z"
         transform="translate(-100.11512,18.202749)" />
      <path
         transform="translate(-147.0222,17.852696)"
         sodipodi:type="arc"
         style="fill:#ffffff;stroke:#000000;stroke-width:5;stroke-miterlimit:4;stroke-dasharray:none"
         id="path3888"
         sodipodi:cx="284.94302"
         sodipodi:cy="76.064751"
         sodipodi:rx="4.2006345"
         sodipodi:ry="4.5506873"
         d="m 289.14366,76.064751 c 0,2.513275 -1.88069,4.550687 -4.20064,4.550687 -2.31994,0 -4.20063,-2.037412 -4.20063,-4.550687 0,-2.513276 1.88069,-4.550688 4.20063,-4.550688 2.31995,0 4.20064,2.037412 4.20064,4.550688 z" />
      <path
         style="fill:none;stroke:#000000;stroke-width:0.86871797px;stroke-linecap:butt;stroke-linejoin:miter;stroke-opacity:1"
         d="m 161.44406,170.73908 c -12.68359,13.2113 -10.80454,10.42997 0.93952,15.99262 11.74407,5.56265 -7.04643,12.51597 -7.04643,12.51597 l -0.93953,-0.34766 0,0 0,0"
         id="path3890"
         inkscape:connector-curvature="0" />
    </g>
  </g>
</svg>
